<mxfile host="app.diagrams.net" modified="2021-07-08T14:24:33.809Z" agent="5.0 (Windows NT 10.0; Win64; x64) AppleWebKit/537.36 (KHTML, like Gecko) Chrome/91.0.4472.124 Safari/537.36" etag="fylaoKapdB302PszFmUe" version="14.8.5" type="github">
  <diagram id="TuLp7LlOlAw14VpSyZWX" name="Page-1">
    <mxGraphModel dx="1421" dy="762" grid="1" gridSize="10" guides="1" tooltips="1" connect="1" arrows="1" fold="1" page="1" pageScale="1" pageWidth="827" pageHeight="1169" math="0" shadow="0">
      <root>
        <mxCell id="0" />
        <mxCell id="1" parent="0" />
        <mxCell id="ovEzs6TORtLqV6i9mpiX-1" value="" style="rounded=0;whiteSpace=wrap;html=1;rotation=-180;" vertex="1" parent="1">
          <mxGeometry x="240" y="40" width="60" height="30" as="geometry" />
        </mxCell>
        <mxCell id="ovEzs6TORtLqV6i9mpiX-6" value="" style="strokeWidth=2;html=1;shape=mxgraph.flowchart.annotation_1;align=left;pointerEvents=1;rotation=-90;" vertex="1" parent="1">
          <mxGeometry x="135" y="30" width="10" height="40" as="geometry" />
        </mxCell>
        <mxCell id="ovEzs6TORtLqV6i9mpiX-7" value="2Î»" style="text;html=1;resizable=0;autosize=1;align=center;verticalAlign=middle;points=[];fillColor=none;strokeColor=none;rounded=0;" vertex="1" parent="1">
          <mxGeometry x="125" y="60" width="30" height="20" as="geometry" />
        </mxCell>
        <mxCell id="ovEzs6TORtLqV6i9mpiX-8" value="" style="rounded=0;whiteSpace=wrap;html=1;rotation=-180;" vertex="1" parent="1">
          <mxGeometry x="240" y="80" width="60" height="30" as="geometry" />
        </mxCell>
        <mxCell id="ovEzs6TORtLqV6i9mpiX-9" value="" style="rounded=0;whiteSpace=wrap;html=1;rotation=-180;strokeWidth=4;strokeColor=#B0E3E6;fillColor=none;" vertex="1" parent="1">
          <mxGeometry x="240" y="120" width="60" height="30" as="geometry" />
        </mxCell>
        <mxCell id="ovEzs6TORtLqV6i9mpiX-10" value="" style="rounded=0;whiteSpace=wrap;html=1;rotation=-180;" vertex="1" parent="1">
          <mxGeometry x="480" y="40" width="60" height="30" as="geometry" />
        </mxCell>
        <mxCell id="ovEzs6TORtLqV6i9mpiX-11" value="" style="rounded=0;whiteSpace=wrap;html=1;rotation=-180;" vertex="1" parent="1">
          <mxGeometry x="480" y="80" width="60" height="30" as="geometry" />
        </mxCell>
        <mxCell id="ovEzs6TORtLqV6i9mpiX-12" value="" style="rounded=0;whiteSpace=wrap;html=1;rotation=-180;" vertex="1" parent="1">
          <mxGeometry x="360" y="80" width="60" height="30" as="geometry" />
        </mxCell>
        <mxCell id="ovEzs6TORtLqV6i9mpiX-13" value="" style="rounded=0;whiteSpace=wrap;html=1;rotation=-180;" vertex="1" parent="1">
          <mxGeometry x="360" y="40" width="60" height="30" as="geometry" />
        </mxCell>
        <mxCell id="ovEzs6TORtLqV6i9mpiX-15" value="" style="rounded=0;whiteSpace=wrap;html=1;rotation=-180;shadow=0;strokeColor=#9673A6;fillColor=none;strokeWidth=4;" vertex="1" parent="1">
          <mxGeometry x="360" y="120" width="60" height="30" as="geometry" />
        </mxCell>
      </root>
    </mxGraphModel>
  </diagram>
</mxfile>
